#!OML:ASF I:\Actors\actors\Patient Classification 1\Patient 1\Session 1\Subject1.ASF
:FULLY-SPECIFIED
:DEGREES
259
root 0.0737222 17.5733 8.40691 8.11923 0.846652 -7.65577
lowerback -0.93003 0.742717 2.45542
upperback -8.08243 1.16909 1.21038
thorax -7.90989 0.461448 -0.170756
lowerneck -4.43322 -7.3591 -8.24677
upperneck 24.6883 -11.9177 10.5488
head 9.62986 -5.38361 3.83972
rclavicle 1.49089e-015 2.94201e-014
rhumerus -10.8021 29.775 -100.983
rradius 134.298
rwrist 29.2189
rhand 41.7769 -50.7442
rfingers 7.12502
rthumb 63.8508 -59.7254
lclavicle 1.49089e-015 2.94201e-014
lhumerus -24.6421 -28.1492 104.996
lradius 137.911
lwrist -21.2653
lhand 53.7682 13.4551
lfingers 7.12502
lthumb 72.1984 0.492907
rfemur -6.95355 18.5094 22.8544
rtibia 10.0419
rfoot -14.8722 -19.7333
rtoes -2.38662
lfemur 0.208261 -32.8779 -9.93207
ltibia -0.946626
lfoot -14.347 43.9485
ltoes 0.391729
260
root 0.100702 17.576 8.43694 8.77369 -4.05226 -8.05672
lowerback -1.78825 0.082432 2.33775
upperback -7.97673 0.252679 1.62139
thorax -7.31596 0.0305458 0.37931
lowerneck -4.21341 -7.91411 -9.24063
upperneck 24.5791 -12.6713 10.5901
head 9.70838 -5.85619 3.92721
rclavicle -5.36719e-015 -5.56597e-015
rhumerus -10.7712 30.1963 -101.112
rradius 134.425
rwrist 28.9182
rhand 41.0528 -50.9098
rfingers 7.12502
rthumb 63.2619 -60.7384
lclavicle -5.36719e-015 -5.56597e-015
lhumerus -24.5172 -27.691 105.028
lradius 137.895
lwrist -21.2416
lhand 53.3721 13.3739
lfingers 7.12502
lthumb 71.9851 1.44514
rfemur -7.99171 19.6106 22.6722
rtibia 10.0357
rfoot -13.7985 -16.3273
rtoes -4.97957
lfemur 2.03456 -32.5229 -10.9546
ltibia -1.47365
lfoot -18.1491 47.3931
ltoes 6.49607
261
root 0.124465 17.5774 8.45368 9.41791 -9.16016 -8.21801
lowerback -2.80669 -0.598008 1.78891
upperback -7.52759 -0.710483 2.03534
thorax -6.2407 -0.400094 1.13909
lowerneck -4.29969 -8.48656 -10.1415
upperneck 24.1129 -13.3963 10.6383
head 9.71706 -6.29506 3.98379
rclavicle -1.65985e-014 -5.1684e-015
rhumerus -9.91351 30.933 -100.802
rradius 134.605
rwrist 28.4924
rhand 40.4657 -51.5274
rfingers 7.12502
rthumb 62.7801 -62.0148
lclavicle -1.65985e-014 -5.1684e-015
lhumerus -23.5947 -27.3384 104.706
lradius 137.791
lwrist -21.2778
lhand 52.5385 13.7601
lfingers 7.12502
lthumb 71.5175 3.92435
rfemur -9.25446 20.9031 22.1316
rtibia 10.2308
rfoot -12.8571 -12.9203
rtoes -7.38048
lfemur 3.77998 -32.3813 -12.3885
ltibia -1.89966
lfoot -23.5559 50.7682
ltoes 13.6457
262
root 0.14743 17.5759 8.46378 10.0499 -14.3242 -8.31865
lowerback -2.77045 -1.1188 1.41456
upperback -7.69487 -1.41672 2.20736
thorax -6.42277 -0.731406 1.55238
lowerneck -3.86482 -8.96946 -10.9501
upperneck 23.9551 -14.1385 10.8584
head 9.75315 -6.73423 4.10739
rclavicle -2.19657e-014 -3.49861e-014
rhumerus -10.0452 30.9444 -100.874
rradius 134.771
rwrist 28.9535
rhand 41.291 -51.6327
rfingers 7.12502
rthumb 63.4564 -61.1868
lclavicle -2.19657e-014 -3.49861e-014
lhumerus -23.7044 -27.2366 104.851
lradius 137.701
lwrist -21.2959
lhand 51.9367 13.7828
lfingers 7.12502
lthumb 71.1647 5.39103
rfemur -10.6806 22.3367 21.4583
rtibia 10.5709
rfoot -12.1109 -9.51589
rtoes -8.8135
lfemur 5.36654 -32.2152 -13.9994
ltibia -2.17142
lfoot -30.546 53.5774
ltoes 20.7693
263
root 0.169677 17.5707 8.48179 10.716 -19.4256 -8.50562
lowerback -2.86519 -1.74307 0.991088
upperback -7.68637 -2.2625 2.54334
thorax -6.31689 -1.12395 2.15939
lowerneck -3.87553 -9.43533 -12.0927
upperneck 23.7493 -14.8207 11.2679
head 9.90167 -7.13565 4.3327
rclavicle 3.09607e-014 -2.74323e-014
rhumerus -9.72738 31.3203 -100.59
rradius 134.933
rwrist 28.806
rhand 42.0096 -52.1401
rfingers 7.12502
rthumb 64.0387 -60.8404
lclavicle 3.09607e-014 -2.74323e-014
lhumerus -23.3358 -26.7906 104.843
lradius 137.554
lwrist -21.1112
lhand 52.5696 12.6652
lfingers 7.12502
lthumb 71.5354 2.75329
rfemur -12.0924 23.7465 20.8538
rtibia 10.8688
rfoot -11.4925 -6.0905
rtoes -9.21691
lfemur 6.93921 -32.1215 -15.6819
ltibia -2.52161
lfoot -38.6469 55.842
ltoes 26.9398
264
root 0.191402 17.5633 8.50911 11.4524 -24.3945 -8.75156
lowerback -3.0001 -2.36438 0.667983
upperback -7.75007 -3.10594 2.83066
thorax -6.25231 -1.52418 2.65623
lowerneck -3.90381 -9.79852 -13.1191
upperneck 23.7355 -15.3716 11.5875
head 10.0983 -7.46979 4.52231
rclavicle -1.99779e-014 -2.38542e-015
rhumerus -9.5302 31.6488 -100.432
rradius 135.058
rwrist 28.5964
rhand 41.6868 -52.6091
rfingers 7.12502
rthumb 63.7779 -61.6979
lclavicle -1.99779e-014 -2.38542e-015
lhumerus -23.214 -26.564 104.988
lradius 137.489
lwrist -21.0514
lhand 53.3522 12.4692
lfingers 7.12502
lthumb 71.9743 0.591561
rfemur -13.4738 24.9119 20.2828
rtibia 11.053
rfoot -10.8619 -2.60967
rtoes -9.17782
lfemur 8.44921 -32.2257 -17.4477
ltibia -2.96888
lfoot -47.7482 57.4729
ltoes 32.3183
265
root 0.213561 17.5547 8.53909 12.327 -29.1504 -9.18181
lowerback -3.12457 -2.91754 0.619778
upperback -8.03482 -3.86052 2.992
thorax -6.44515 -1.89922 2.87535
lowerneck -3.31783 -10.1633 -13.4068
upperneck 23.6814 -15.9775 11.458
head 10.0718 -7.83684 4.45815
rclavicle 9.07949e-014 2.66371e-014
rhumerus -9.88632 31.506 -100.641
rradius 135.142
rwrist 28.5394
rhand 41.3792 -52.5197
rfingers 7.12502
rthumb 63.5282 -61.9712
lclavicle 9.07949e-014 2.66371e-014
lhumerus -23.5841 -26.5675 105.213
lradius 137.327
lwrist -21.2818
lhand 53.6899 12.3907
lfingers 7.12502
lthumb 72.1566 -0.36501
rfemur -14.8274 25.6766 19.8991
rtibia 11.1214
rfoot -10.1476 0.934642
rtoes -9.14661
lfemur 9.55736 -31.9057 -18.8799
ltibia -3.27942
lfoot -55.9454 58.351
ltoes 36.1901
266
root 0.234425 17.5453 8.57021 13.3434 -33.6267 -9.78306
lowerback -3.18666 -3.58374 0.672585
upperback -8.3458 -4.76071 3.30696
thorax -6.68729 -2.34792 3.20908
lowerneck -2.93748 -10.3843 -14.0305
upperneck 23.7972 -16.3759 11.4487
head 10.1593 -8.11571 4.50898
rclavicle -2.94698e-014 -1.78906e-015
rhumerus -10.5297 32.173 -101.004
rradius 135.324
rwrist 28.6541
rhand 40.327 -53.1992
rfingers 7.12502
rthumb 62.6657 -63.8387
lclavicle -2.94698e-014 -1.78906e-015
lhumerus -23.8526 -26.2602 105.439
lradius 137.228
lwrist -21.4054
lhand 52.7219 12.2329
lfingers 7.12502
lthumb 71.6226 1.94597
rfemur -16.0574 26.1133 19.7142
rtibia 11.0131
rfoot -9.2998 4.43554
rtoes -8.76207
lfemur 10.0955 -30.8887 -19.7727
ltibia -3.37699
lfoot -62.2711 58.5583
ltoes 38.9936
267
root 0.249739 17.5381 8.60556 14.4207 -37.8316 -10.452
lowerback -3.40966 -4.04524 0.962226
upperback -8.44772 -5.39988 3.34426
thorax -6.66458 -2.69301 3.09064
lowerneck -2.78209 -10.7893 -14.4871
upperneck 23.7401 -17.1091 11.8145
head 10.3016 -8.49163 4.60041
rclavicle -5.43676e-014 -2.72335e-014
rhumerus -10.664 31.992 -101.095
rradius 135.579
rwrist 28.6418
rhand 40.2714 -53.4922
rfingers 7.12502
rthumb 62.6198 -64.1923
lclavicle -5.43676e-014 -2.72335e-014
lhumerus -23.8281 -26.6595 105.537
lradius 137
lwrist -21.5266
lhand 51.9908 11.5983
lfingers 7.12502
lthumb 71.197 3.07891
rfemur -17.0742 26.4833 19.6257
rtibia 10.7411
rfoot -8.29202 7.75603
rtoes -7.16188
lfemur 10.3158 -29.4811 -20.3688
ltibia -3.4096
lfoot -67.3225 58.2928
ltoes 41.2591
268
root 0.257961 17.5351 8.64263 15.5216 -41.7214 -11.2062
lowerback -3.20221 -4.60438 0.954346
upperback -8.77389 -6.1514 3.68489
thorax -7.07023 -3.06008 3.51158
lowerneck -2.57505 -11.0178 -15.073
upperneck 23.7894 -17.498 11.8163
head 10.4017 -8.75034 4.63624
rclavicle 1.00386e-013 8.94531e-015
rhumerus -11.0768 31.9301 -101.041
rradius 135.751
rwrist 28.711
rhand 40.6246 -53.6005
rfingers 7.12502
rthumb 62.9109 -63.912
lclavicle 1.00386e-013 8.94531e-015
lhumerus -24.2322 -26.7161 106.175
lradius 136.79
lwrist -21.645
lhand 52.8055 13.0839
lfingers 7.12502
lthumb 71.6701 2.58962
rfemur -17.8787 26.7465 19.6775
rtibia 10.4045
rfoot -7.16754 10.8131
rtoes -4.97916
lfemur 10.3531 -27.5983 -20.7004
ltibia -3.43305
lfoot -70.5113 58.1493
ltoes 42.3617
269
root 0.262351 17.5334 8.68024 16.6358 -45.2257 -12.0369
lowerback -3.69588 -5.02886 1.46473
upperback -8.62467 -6.75059 3.60487
thorax -6.66762 -3.40737 3.09913
lowerneck -2.60723 -11.2412 -15.3107
upperneck 23.6209 -17.9419 12.2043
head 10.4815 -8.95921 4.73254
rclavicle -3.25758e-014 -1.25234e-014
rhumerus -10.8 31.4725 -101.064
rradius 135.87
rwrist 29.1825
rhand 41.1322 -53.648
rfingers 7.12502
rthumb 63.3268 -63.3855
lclavicle -3.25758e-014 -1.25234e-014
lhumerus -24.0896 -27.3242 106.088
lradius 136.614
lwrist -21.2059
lhand 51.9873 13.612
lfingers 7.12502
lthumb 71.1949 5.10093
rfemur -18.5065 26.8308 19.8666
rtibia 10.0632
rfoot -5.99737 13.5133
rtoes -2.83256
lfemur 10.294 -25.5531 -20.8733
ltibia -3.40071
lfoot -72.4687 58.0366
ltoes 42.936
